<svg width="19" height="19" viewBox="0 0 19 19" fill="none" xmlns="http://www.w3.org/2000/svg">
<path d="M9.99513 16.3922C9.99513 16.0158 9.69007 15.7108 9.31376 15.7108C8.93745 15.7108 8.63239 16.0158 8.63239 16.3922C8.63239 16.7685 8.93745 17.0735 9.31376 17.0735C9.69007 17.0735 9.99513 16.7685 9.99513 16.3922Z" stroke="black" stroke-width="0.5"/>
<path d="M5.92047 0.5H12.7244C13.5528 0.5 14.2244 1.17157 14.2244 2V17C14.2244 17.8284 13.5528 18.5 12.7244 18.5H8.87227H5.92047C5.09204 18.5 4.42047 17.8284 4.42047 17V2C4.42047 1.17157 5.09204 0.5 5.92047 0.5Z" stroke="black"/>
<path d="M0.00730558 6.91098C-2.89528e-05 7.30454 0.112815 7.45951 0.203414 7.58416C0.232331 7.62444 0.257581 7.65889 0.276699 7.6997C0.319324 7.79105 0.349684 7.90452 0.366878 8.03714C0.740278 10.9199 0.824324 11.3129 1.7718 11.9485C2.22534 12.253 3.15791 12.4572 4.0921 12.4572C4.82056 12.4572 5.87277 12.3351 6.7478 11.7538C8.02263 10.9065 8.49763 7.98209 8.51993 7.83492C8.52119 7.82007 8.55883 7.47115 9.14126 7.47115H9.14186L9.17751 7.47077C9.73001 7.47077 9.76806 7.82007 9.77209 7.85774C9.79169 7.98209 10.2668 10.9061 11.5416 11.7538C12.4167 12.3354 13.4689 12.4572 14.1973 12.4572C15.1315 12.4572 16.0639 12.2525 16.5175 11.9485C17.4651 11.3129 17.5492 10.9195 17.9224 8.03676C17.9395 7.90452 17.9701 7.79113 18.0127 7.6994C18.0317 7.65859 18.0569 7.62405 18.0858 7.58378C18.1764 7.45913 18.2895 7.30369 18.282 6.91059C18.2807 6.84475 18.283 6.7276 18.2851 6.59919C18.2889 6.4031 18.2923 6.18228 18.287 6.06329C18.2602 5.48023 17.8552 5.24279 17.6513 5.20052C16.3479 4.85957 14.783 4.76079 13.1309 4.91186L13.0446 4.91967C12.0369 5.01048 11.4819 5.0604 10.8204 5.43765C10.6669 5.52532 10.509 5.6244 10.3693 5.71583C10.1205 5.87899 9.76133 6.05602 9.56829 6.10992C9.49061 6.13197 9.41186 6.15357 9.34212 6.17141C9.24172 6.19736 9.04748 6.19736 8.94708 6.17141C8.87734 6.15318 8.79858 6.13197 8.72073 6.10992C8.52817 6.05602 8.16896 5.87899 7.92006 5.71583C7.78041 5.62448 7.62259 5.52532 7.46899 5.43765C6.8075 5.0604 6.2526 5.01048 5.24488 4.91967L5.15849 4.91186C3.50594 4.76125 1.93881 4.86033 0.644568 5.1993C0.434572 5.24309 0.02973 5.48061 0.002977 6.06367C-0.00279443 6.18258 0.000993072 6.40348 0.0045401 6.5995C0.00634367 6.72836 0.00850796 6.84574 0.00730558 6.91098ZM17.9067 6.19468V6.62607L17.4849 6.41045L17.9067 6.19468ZM10.5918 6.81358C10.6557 6.61175 11.0575 5.9394 13.5505 5.75457C13.9875 5.72226 14.3583 5.70641 14.6839 5.70641C16.1539 5.70641 16.6218 6.043 16.9001 6.58579C17.0666 6.91052 17.1799 7.58983 17.1812 8.02045C17.1843 8.96086 17.0358 10.6324 16.012 11.2644C15.5428 11.5538 14.8393 11.7267 14.1304 11.7267C12.7697 11.7267 11.682 11.1375 11.2216 10.1511C10.2527 8.07856 10.5799 6.84811 10.5918 6.81358ZM1.38854 6.58549C1.66719 6.04247 2.13492 5.7061 3.60471 5.7061C3.9305 5.7061 4.30125 5.72195 4.73832 5.75426C7.23074 5.9394 7.63299 6.61182 7.70442 6.83709C7.70826 6.84819 8.03561 8.0791 7.06781 10.1513C6.60688 11.1377 5.51957 11.7269 4.15901 11.7269C3.44985 11.7269 2.74627 11.554 2.27698 11.2646C1.25309 10.6326 1.10478 8.96101 1.10773 8.0206C1.10899 7.58937 1.22213 6.91021 1.38854 6.58549ZM0.381607 6.19468L0.803283 6.41037L0.381607 6.62599V6.19468V6.19468Z" fill="black"/>
</svg>
