<svg width="191" height="51" viewBox="0 0 191 51" fill="none" xmlns="http://www.w3.org/2000/svg">
<rect x="19" y="2" width="12" height="2" rx="1" stroke="black" stroke-width="2"/>
<path d="M63.13 39.36C60.73 39.36 59.02 38.63 58 37.17C56.98 35.71 56.47 33.64 56.47 30.96V22.8C56.47 20.06 57.02 17.97 58.12 16.53C59.24 15.09 61.12 14.37 63.76 14.37C66.3 14.37 68.12 14.99 69.22 16.23C70.32 17.47 70.87 19.22 70.87 21.48V23.04H65.62V21.06C65.62 20.1 65.51 19.38 65.29 18.9C65.07 18.4 64.58 18.15 63.82 18.15C63.04 18.15 62.53 18.42 62.29 18.96C62.07 19.5 61.96 20.25 61.96 21.21V32.46C61.96 33.42 62.1 34.18 62.38 34.74C62.68 35.28 63.21 35.55 63.97 35.55C65.37 35.55 66.07 34.5 66.07 32.4V29.55H63.88V26.4H70.9V39H67.36L67.06 36.99C66.3 38.57 64.99 39.36 63.13 39.36ZM79.6609 39.3C77.7609 39.3 76.2809 38.8 75.2209 37.8C74.1609 36.78 73.6309 35.35 73.6309 33.51V27.15C73.6309 25.31 74.1609 23.89 75.2209 22.89C76.2809 21.87 77.7609 21.36 79.6609 21.36C81.5809 21.36 83.0209 21.85 83.9809 22.83C84.9409 23.81 85.4209 25.25 85.4209 27.15V30.63H78.4609V33.96C78.4609 35.2 78.8609 35.82 79.6609 35.82C80.5009 35.82 80.9209 35.26 80.9209 34.14V32.31H85.4209V33.99C85.4209 35.73 84.9109 37.05 83.8909 37.95C82.8909 38.85 81.4809 39.3 79.6609 39.3ZM80.9209 28.35V26.61C80.9209 25.97 80.8009 25.52 80.5609 25.26C80.3409 24.98 80.0309 24.84 79.6309 24.84C79.2509 24.84 78.9609 24.99 78.7609 25.29C78.5609 25.59 78.4609 26.12 78.4609 26.88V28.35H80.9209ZM93.7527 39.3C91.8527 39.3 90.3727 38.8 89.3127 37.8C88.2527 36.78 87.7227 35.35 87.7227 33.51V27.15C87.7227 25.31 88.2527 23.89 89.3127 22.89C90.3727 21.87 91.8527 21.36 93.7527 21.36C95.6727 21.36 97.1127 21.85 98.0727 22.83C99.0327 23.81 99.5127 25.25 99.5127 27.15V30.63H92.5527V33.96C92.5527 35.2 92.9527 35.82 93.7527 35.82C94.5927 35.82 95.0127 35.26 95.0127 34.14V32.31H99.5127V33.99C99.5127 35.73 99.0027 37.05 97.9827 37.95C96.9827 38.85 95.5727 39.3 93.7527 39.3ZM95.0127 28.35V26.61C95.0127 25.97 94.8927 25.52 94.6527 25.26C94.4327 24.98 94.1227 24.84 93.7227 24.84C93.3427 24.84 93.0527 24.99 92.8527 25.29C92.6527 25.59 92.5527 26.12 92.5527 26.88V28.35H95.0127ZM102.175 14.7H107.035V28.17L111.295 21.66H116.785L112.165 28.77L116.725 39H111.385L108.325 30.75L107.035 32.4V39H102.175V14.7ZM118.675 14.7H125.005C126.585 14.7 127.925 14.87 129.025 15.21C130.145 15.53 131.045 16.16 131.725 17.1C132.405 18.04 132.745 19.36 132.745 21.06C132.745 22.5 132.435 23.62 131.815 24.42C131.195 25.22 130.315 25.73 129.175 25.95C130.575 26.13 131.645 26.72 132.385 27.72C133.125 28.72 133.495 30.08 133.495 31.8C133.495 36.6 131.045 39 126.145 39H118.675V14.7ZM125.095 24.42C126.235 24.42 127.005 24.16 127.405 23.64C127.825 23.12 128.035 22.31 128.035 21.21C128.035 20.25 127.775 19.53 127.255 19.05C126.735 18.55 125.975 18.3 124.975 18.3H124.045V24.42H125.095ZM125.185 35.25C126.325 35.25 127.125 34.97 127.585 34.41C128.065 33.83 128.305 32.93 128.305 31.71C128.305 30.33 128.065 29.36 127.585 28.8C127.125 28.24 126.315 27.96 125.155 27.96H124.045V35.25H125.185ZM136.102 21.66H140.992V24.54C141.592 23.48 142.172 22.7 142.732 22.2C143.292 21.7 143.952 21.45 144.712 21.45C144.992 21.45 145.242 21.48 145.462 21.54V26.4C144.862 26.16 144.332 26.04 143.872 26.04C142.812 26.04 141.852 26.6 140.992 27.72V39H136.102V21.66ZM153.196 39.3C151.296 39.3 149.816 38.8 148.756 37.8C147.696 36.78 147.166 35.35 147.166 33.51V27.15C147.166 25.31 147.696 23.89 148.756 22.89C149.816 21.87 151.296 21.36 153.196 21.36C155.116 21.36 156.556 21.85 157.516 22.83C158.476 23.81 158.956 25.25 158.956 27.15V30.63H151.996V33.96C151.996 35.2 152.396 35.82 153.196 35.82C154.036 35.82 154.456 35.26 154.456 34.14V32.31H158.956V33.99C158.956 35.73 158.446 37.05 157.426 37.95C156.426 38.85 155.016 39.3 153.196 39.3ZM154.456 28.35V26.61C154.456 25.97 154.336 25.52 154.096 25.26C153.876 24.98 153.566 24.84 153.166 24.84C152.786 24.84 152.496 24.99 152.296 25.29C152.096 25.59 151.996 26.12 151.996 26.88V28.35H154.456ZM165.188 39.3C164.348 39.3 163.618 39.1 162.998 38.7C162.398 38.28 161.938 37.75 161.618 37.11C161.318 36.45 161.168 35.77 161.168 35.07C161.168 33.73 161.508 32.63 162.188 31.77C162.868 30.91 163.678 30.24 164.618 29.76C165.578 29.28 166.808 28.78 168.308 28.26V26.52C168.308 26.02 168.228 25.64 168.068 25.38C167.928 25.12 167.668 24.99 167.288 24.99C166.908 24.99 166.638 25.11 166.478 25.35C166.318 25.59 166.228 25.93 166.208 26.37L166.088 27.63L161.528 27.45C161.608 25.37 162.158 23.84 163.178 22.86C164.198 21.86 165.718 21.36 167.738 21.36C169.438 21.36 170.738 21.84 171.638 22.8C172.538 23.74 172.988 25 172.988 26.58V34.68C172.988 36.44 173.088 37.88 173.288 39H168.908C168.728 37.66 168.598 36.84 168.518 36.54C168.278 37.34 167.878 38 167.318 38.52C166.758 39.04 166.048 39.3 165.188 39.3ZM166.928 36C167.428 36 167.888 35.71 168.308 35.13V30.39C167.408 30.91 166.728 31.46 166.268 32.04C165.808 32.6 165.578 33.29 165.578 34.11C165.578 34.69 165.698 35.15 165.938 35.49C166.178 35.83 166.508 36 166.928 36ZM175.885 14.7H180.745V28.17L185.005 21.66H190.495L185.875 28.77L190.435 39H185.095L182.035 30.75L180.745 32.4V39H175.885V14.7Z" fill="black"/>
<path d="M27 44C27 42.8954 26.1046 42 25 42C23.8954 42 23 42.8954 23 44C23 45.1046 23.8954 46 25 46C26.1046 46 27 45.1046 27 44Z" stroke="black"/>
<path d="M12.0234 3C12.0234 2.17157 12.6949 1.5 13.5234 1.5H36.5234C37.3518 1.5 38.0234 2.17157 38.0234 3V48C38.0234 48.8284 37.3518 49.5 36.5234 49.5H23.815H13.5234C12.695 49.5 12.0234 48.8284 12.0234 48V3Z" stroke="black" stroke-width="3"/>
<path d="M0.0196097 18.5505C-7.77154e-05 19.6069 0.302818 20.0229 0.546006 20.3575C0.623626 20.4656 0.691403 20.5581 0.742719 20.6676C0.857132 20.9128 0.938625 21.2174 0.984778 21.5734C1.98706 29.3114 2.21266 30.3661 4.75589 32.0722C5.97328 32.8896 8.47649 33.4377 10.9841 33.4377C12.9394 33.4377 15.7637 33.1099 18.1125 31.5495C21.5344 29.2754 22.8094 21.4256 22.8693 21.0306C22.8727 20.9907 22.9737 20.0541 24.5371 20.0541H24.5387L24.6344 20.0531C26.1174 20.0531 26.2195 20.9907 26.2304 21.0918C26.283 21.4256 27.5583 29.2742 30.98 31.5495C33.329 33.1109 36.1533 33.4377 38.1086 33.4377C40.6162 33.4377 43.1189 32.8883 44.3365 32.0722C46.88 30.3661 47.1056 29.3103 48.1074 21.5723C48.1534 21.2174 48.2354 20.913 48.3498 20.6668C48.4008 20.5573 48.4684 20.4646 48.5462 20.3565C48.7894 20.0219 49.0928 19.6046 49.0728 18.5495C49.0694 18.3727 49.0753 18.0583 49.0812 17.7136C49.0912 17.1873 49.1004 16.5945 49.0862 16.2751C49.0144 14.7101 47.927 14.0727 47.3798 13.9593C43.8811 13.0441 39.6806 12.779 35.2461 13.1845L35.0145 13.2054C32.3096 13.4492 30.8198 13.5832 29.0442 14.5958C28.6322 14.8311 28.2085 15.0971 27.8333 15.3425C27.1657 15.7804 26.2015 16.2556 25.6833 16.4003C25.4748 16.4595 25.2634 16.5175 25.0762 16.5653C24.8067 16.635 24.2853 16.635 24.0158 16.5653C23.8286 16.5164 23.6173 16.4595 23.4083 16.4003C22.8914 16.2556 21.9272 15.7804 21.2591 15.3425C20.8842 15.0973 20.4606 14.8311 20.0483 14.5958C18.2728 13.5832 16.7833 13.4492 14.0784 13.2054L13.8465 13.1845C9.41067 12.7802 5.20418 13.0461 1.73016 13.956C1.16648 14.0736 0.0798016 14.7111 0.0079909 16.2762C-0.00750084 16.5954 0.00266561 17.1883 0.0121866 17.7144C0.0170278 18.0603 0.0228372 18.3754 0.0196097 18.5505ZM48.0655 16.6278V17.7858L46.9331 17.207L48.0655 16.6278ZM28.4307 18.2891C28.602 17.7473 29.6807 15.9426 36.3723 15.4465C37.5455 15.3597 38.5406 15.3172 39.4148 15.3172C43.3605 15.3172 44.6163 16.2207 45.3633 17.6776C45.8105 18.5493 46.1145 20.3727 46.1179 21.5286C46.1263 24.0528 45.7277 28.5396 42.9795 30.236C41.7202 31.0129 39.8318 31.477 37.929 31.477C34.2765 31.477 31.357 29.8955 30.121 27.2477C27.5205 21.6846 28.3987 18.3818 28.4307 18.2891ZM3.72714 17.6768C4.4751 16.2192 5.73058 15.3164 9.67581 15.3164C10.5503 15.3164 11.5455 15.3589 12.7186 15.4456C19.4088 15.9426 20.4886 17.7475 20.6803 18.3522C20.6906 18.382 21.5693 21.686 18.9715 27.2481C17.7343 29.8959 14.8157 31.4774 11.1637 31.4774C9.26011 31.4774 7.37157 31.0133 6.1119 30.2364C3.36357 28.54 2.96546 24.0532 2.97337 21.529C2.97676 20.3715 3.28046 18.5485 3.72714 17.6768ZM1.02431 16.6278L2.15618 17.2068L1.02431 17.7855V16.6278Z" fill="black"/>
</svg>
